<svg width="79" height="80" viewBox="0 0 79 80" fill="none" xmlns="http://www.w3.org/2000/svg">
<path fill-rule="evenodd" clip-rule="evenodd" d="M0 40C0 61.8165 17.6847 79.5 39.5 79.5C61.3153 79.5 79 61.8165 79 40C79 18.1847 61.3153 0.5 39.5 0.5C17.6847 0.5 0 18.1847 0 40Z" fill="white"/>
<path d="M23.5809 53.5717L38.888 26.56L35.8409 21.1817L38.0228 19.9453L40.3301 24.0157L42.6349 19.9453L44.8168 21.1817L41.7697 26.56L57.0756 53.5705H60.7146V56.0784H18.8095V53.5705H23.5809V53.5717ZM26.465 53.5717H32.6333L40.8944 38.3172L49.158 53.5717H54.194L40.3289 29.103L26.465 53.5717ZM35.4848 53.5717H46.3065L40.8944 43.5839L35.4848 53.5717Z" fill="#020203"/>
</svg>
