<svg width="20" height="20" viewBox="0 0 20 20" fill="none" xmlns="http://www.w3.org/2000/svg">
<path d="M19.0852 5.41971C18.8671 4.59853 18.2246 3.95179 17.4087 3.73232C15.9299 3.3335 9.99999 3.3335 9.99999 3.3335C9.99999 3.3335 4.07013 3.3335 2.59127 3.73232C1.7754 3.95183 1.13283 4.59853 0.914744 5.41971C0.518494 6.90815 0.518494 10.0136 0.518494 10.0136C0.518494 10.0136 0.518494 13.1191 0.914744 14.6076C1.13283 15.4287 1.7754 16.0485 2.59127 16.268C4.07013 16.6668 9.99999 16.6668 9.99999 16.6668C9.99999 16.6668 15.9298 16.6668 17.4087 16.268C18.2246 16.0485 18.8671 15.4287 19.0852 14.6076C19.4815 13.1191 19.4815 10.0136 19.4815 10.0136C19.4815 10.0136 19.4815 6.90815 19.0852 5.41971ZM8.06058 12.8332V7.19409L13.0168 10.0137L8.06058 12.8332Z" fill="white"/>
</svg>
